<?xml version="1.0" encoding="UTF-8" standalone="no" ?>
<!DOCTYPE svg PUBLIC "-//W3C//DTD SVG 1.1//EN" "http://www.w3.org/Graphics/SVG/1.1/DTD/svg11.dtd">
<svg xmlns="http://www.w3.org/2000/svg" xmlns:xlink="http://www.w3.org/1999/xlink" version="1.1" width="32" height="32" viewBox="0 0 32 32" xml:space="preserve">
<desc>Created with Fabric.js 3.6.3</desc>
<defs>
</defs>
<g transform="matrix(1 0 0 1 15.35 11.29)"  >
<path style="stroke: none; stroke-width: 1; stroke-dasharray: none; stroke-linecap: butt; stroke-dashoffset: 0; stroke-linejoin: miter; stroke-miterlimit: 4; fill: rgb(89,110,121); fill-rule: nonzero; opacity: 1;"  transform=" translate(-16, -16.01)" d="M 11.44 5.264 c -3.05 0.408 -5.846 1.644 -6.709 2.964 c -1.711 2.619 -3.448 9.196 -3.557 13.471 l -0.023 0.92 l 0.246 0.369 c 1.152 1.732 3.837 3.179 6.843 3.687 c 1.341 0.227 1.185 0.308 2.279 -1.177 c 0.449 -0.61 0.841 -1.118 0.87 -1.129 s 0.282 0.027 0.562 0.084 c 1.299 0.266 3.444 0.466 4.329 0.403 c 0.099 -0.007 0.459 -0.023 0.8 -0.035 c 0.969 -0.035 2.255 -0.201 3.22 -0.417 l 0.32 -0.071 l 0.24 0.323 c 0.132 0.178 0.51 0.689 0.838 1.136 c 0.842 1.146 0.748 1.105 2.061 0.883 c 3.006 -0.509 5.691 -1.955 6.843 -3.687 l 0.246 -0.369 l -0.024 -0.92 c -0.113 -4.309 -1.838 -10.836 -3.563 -13.483 c -0.861 -1.32 -3.699 -2.563 -6.753 -2.956 c -0.915 -0.118 -0.98 -0.065 -1.265 1.03 c -0.139 0.535 -0.055 0.491 -0.75 0.394 c -0.972 -0.135 -1.543 -0.176 -2.493 -0.176 s -1.521 0.04 -2.493 0.176 c -0.695 0.097 -0.612 0.141 -0.75 -0.394 c -0.286 -1.101 -0.356 -1.155 -1.317 -1.026 z M 11.857 6.47 c 0.16 0.48 0.169 0.462 -0.296 0.566 c -1.668 0.372 -4.3 1.506 -4.508 1.942 c -0.225 0.472 0.281 0.788 0.782 0.487 c 2.138 -1.284 5.17 -2.043 8.165 -2.043 c 2.992 0 6.04 0.762 8.165 2.042 c 0.513 0.309 1.023 -0.024 0.774 -0.505 c -0.228 -0.441 -2.811 -1.534 -4.59 -1.943 c -0.364 -0.084 -0.362 -0.079 -0.207 -0.545 l 0.103 -0.309 l 0.187 0.022 c 2.671 0.321 5.366 1.448 6.072 2.539 c 1.632 2.521 3.28 8.738 3.403 12.843 l 0.024 0.787 l -0.185 0.259 c -0.966 1.354 -2.999 2.482 -5.447 3.024 c -0.523 0.116 -1.37 0.246 -1.424 0.219 c -0.026 -0.013 -1.28 -1.717 -1.29 -1.753 c -0.004 -0.013 0.259 -0.113 0.582 -0.223 c 1.391 -0.472 2.999 -1.311 3.592 -1.876 c 0.466 -0.443 -0.091 -1.043 -0.601 -0.647 c -3.39 2.635 -10.083 3.38 -15.04 1.674 c -1.238 -0.426 -2.975 -1.319 -3.273 -1.682 c -0.248 -0.302 -0.767 -0.084 -0.767 0.323 c 0 0.472 1.852 1.564 3.74 2.204 c 0.308 0.104 0.564 0.207 0.568 0.227 c 0.008 0.036 -1.208 1.723 -1.262 1.751 c -0.05 0.026 -0.868 -0.095 -1.346 -0.198 c -2.506 -0.542 -4.557 -1.682 -5.56 -3.088 l -0.152 -0.213 l 0.025 -0.807 c 0.135 -4.367 2.153 -11.601 3.679 -13.19 c 0.885 -0.921 3.656 -1.945 5.935 -2.192 c 0.026 -0.003 0.093 0.135 0.15 0.305 z M 5.58 11.041 c -0.043 0.084 -0.053 0.142 -0.027 0.167 s 0.056 -0.012 0.087 -0.107 c 0.062 -0.189 0.025 -0.226 -0.06 -0.06 z M 5.055 12.672 c -0.108 0.07 -0.177 0.337 -0.1 0.384 c 0.031 0.019 0.183 -0.373 0.155 -0.4 c -0.006 -0.006 -0.031 0.001 -0.055 0.016 z M 10.96 14.262 c -1.776 0.381 -2.692 2.573 -1.797 4.298 c 1.04 2.003 3.697 1.969 4.699 -0.06 c 1.076 -2.177 -0.665 -4.718 -2.902 -4.238 z M 19.96 14.262 c -2.017 0.433 -2.841 3.171 -1.452 4.827 c 1.251 1.492 3.475 1.191 4.354 -0.589 c 1.075 -2.177 -0.665 -4.718 -2.902 -4.238 z M 12.216 15.275 c 1.408 0.693 1.431 2.974 0.037 3.678 c -1.777 0.897 -3.359 -1.513 -2.087 -3.18 c 0.474 -0.622 1.361 -0.837 2.049 -0.498 z M 21.216 15.275 c 1.404 0.691 1.429 2.977 0.04 3.676 c -1.777 0.895 -3.353 -1.49 -2.097 -3.173 c 0.463 -0.621 1.368 -0.842 2.057 -0.503 z" stroke-linecap="round" />
</g>
</svg>