<?xml version="1.0" encoding="UTF-8" standalone="no" ?>
<!DOCTYPE svg PUBLIC "-//W3C//DTD SVG 1.1//EN" "http://www.w3.org/Graphics/SVG/1.1/DTD/svg11.dtd">
<svg xmlns="http://www.w3.org/2000/svg" xmlns:xlink="http://www.w3.org/1999/xlink" version="1.1" width="33" height="32" viewBox="0 0 33 32" xml:space="preserve">
<desc>Created with Fabric.js 3.6.3</desc>
<defs>
</defs>
<g transform="matrix(1 0 0 1 16.49 14.04)"  >
<path style="stroke: none; stroke-width: 1; stroke-dasharray: none; stroke-linecap: butt; stroke-dashoffset: 0; stroke-linejoin: miter; stroke-miterlimit: 4; fill: rgb(89,110,121); fill-rule: nonzero; opacity: 1;"  transform=" translate(-16.01, -16)" d="M 3.595 2.806 c -0.55 1.49 -0.855 2.844 -1.026 4.548 c -0.072 0.719 -0.051 2.305 0.036 2.702 c 0.019 0.086 0.018 0.087 -0.173 0.306 c -1.958 2.243 -2.653 4.704 -2.333 8.264 c 0.589 6.552 4.306 10.202 11.074 10.872 c 0.519 0.051 8.97 0.06 9.543 0.01 c 6.701 -0.587 10.525 -4.203 11.183 -10.576 c 0.382 -3.697 -0.294 -6.25 -2.253 -8.511 l -0.234 -0.27 l 0.04 -0.299 c 0.05 -0.375 0.058 -1.779 0.012 -2.335 c -0.138 -1.675 -0.542 -3.479 -1.095 -4.892 l -0.064 -0.164 l -0.085 0.007 c -1.548 0.129 -5.074 1.718 -7.523 3.389 l -0.303 0.207 l -0.233 -0.055 c -2.048 -0.48 -6.471 -0.469 -8.394 0.022 l -0.128 0.033 l -0.495 -0.327 c -2.494 -1.647 -5.131 -2.849 -7.062 -3.221 c -0.132 -0.025 -0.267 -0.051 -0.298 -0.057 c -0.056 -0.011 -0.06 -0.003 -0.189 0.346 z M 5.461 4.371 c 1.732 0.625 3.521 1.577 5.453 2.9 c 0.242 0.166 0.459 0.302 0.482 0.302 s 0.189 -0.04 0.369 -0.089 c 2.093 -0.565 6.331 -0.576 8.415 -0.022 c 0.223 0.059 0.421 0.111 0.44 0.115 s 0.29 -0.166 0.602 -0.378 c 2.095 -1.424 4.031 -2.415 5.867 -3.004 l 0.304 -0.098 l 0.039 0.124 c 0.602 1.93 0.83 4.38 0.549 5.905 l -0.081 0.441 l 0.064 0.076 c 0.035 0.042 0.219 0.247 0.408 0.457 c 1.873 2.074 2.46 4.122 2.15 7.51 c -0.17 1.866 -0.657 3.534 -1.417 4.855 c -0.13 0.226 -0.511 0.81 -0.529 0.81 c -0.005 0 0.03 -0.116 0.078 -0.257 c 0.462 -1.37 0.588 -3.302 0.304 -4.646 c -0.449 -2.126 -1.96 -3.978 -3.837 -4.702 c -0.911 -0.352 -1.852 -0.494 -3.266 -0.494 c -0.815 0 -1.053 0.01 -2.495 0.108 c -1.594 0.108 -1.788 0.118 -2.554 0.143 c -1.12 0.035 -2.015 0.006 -3.969 -0.132 c -3.367 -0.237 -4.745 -0.134 -6.136 0.461 c -1.685 0.72 -3.094 2.448 -3.578 4.386 c -0.358 1.434 -0.248 3.365 0.282 4.937 c 0.087 0.258 0.075 0.252 -0.137 -0.067 c -1.16 -1.746 -1.724 -3.763 -1.824 -6.519 c -0.101 -2.773 0.536 -4.555 2.331 -6.522 c 0.252 -0.276 0.363 -0.413 0.355 -0.438 c -0.341 -1.123 -0.248 -3.434 0.217 -5.38 c 0.074 -0.311 0.266 -1.007 0.285 -1.039 c 0.013 -0.021 0.339 0.08 0.831 0.258 z M 11.414 15.608 c 0.217 0.012 0.891 0.056 1.499 0.097 c 2.819 0.191 3.479 0.189 6.523 -0.021 c 1.367 -0.094 1.638 -0.106 2.397 -0.106 c 2.436 0.001 3.692 0.522 4.8 1.994 c 1.022 1.357 1.324 3.101 0.9 5.198 c -0.739 3.658 -3.609 5.196 -10.033 5.378 c -9.419 0.266 -12.965 -1.61 -13.178 -6.971 c -0.062 -1.55 0.401 -2.881 1.385 -3.983 c 1.212 -1.357 2.66 -1.759 5.708 -1.586 z M 10.24 18.297 c -1.71 0.314 -2.573 2.923 -1.613 4.877 c 1.205 2.452 3.982 1.391 4.125 -1.576 c 0.091 -1.904 -1.16 -3.549 -2.512 -3.301 z M 21.231 18.31 c -1.988 0.408 -2.662 3.913 -1.073 5.578 c 1.474 1.544 3.563 0.191 3.628 -2.35 c 0.05 -1.968 -1.172 -3.512 -2.555 -3.228 z M 10.627 19.718 c 0.916 0.416 0.955 2.785 0.056 3.355 c -0.493 0.313 -1.1 -0.731 -1.046 -1.796 c 0.048 -0.941 0.563 -1.752 0.99 -1.559 z M 21.732 19.753 c 0.856 0.55 0.872 2.742 0.024 3.304 c -0.601 0.397 -1.26 -0.99 -1.03 -2.169 c 0.163 -0.838 0.637 -1.372 1.006 -1.134 z" stroke-linecap="round" />
</g>
<g transform="matrix(1 0 0 1 16.49 14.04)"  >
<path style="stroke: none; stroke-width: 1; stroke-dasharray: none; stroke-linecap: butt; stroke-dashoffset: 0; stroke-linejoin: miter; stroke-miterlimit: 4; fill: rgb(89,110,121); fill-rule: nonzero; opacity: 1;"  transform=" translate(-16.01, -16)" d="M 3.595 2.806 c -0.55 1.49 -0.855 2.844 -1.026 4.548 c -0.072 0.719 -0.051 2.305 0.036 2.702 c 0.019 0.086 0.018 0.087 -0.173 0.306 c -1.958 2.243 -2.653 4.704 -2.333 8.264 c 0.589 6.552 4.306 10.202 11.074 10.872 c 0.519 0.051 8.97 0.06 9.543 0.01 c 6.701 -0.587 10.525 -4.203 11.183 -10.576 c 0.382 -3.697 -0.294 -6.25 -2.253 -8.511 l -0.234 -0.27 l 0.04 -0.299 c 0.05 -0.375 0.058 -1.779 0.012 -2.335 c -0.138 -1.675 -0.542 -3.479 -1.095 -4.892 l -0.064 -0.164 l -0.085 0.007 c -1.548 0.129 -5.074 1.718 -7.523 3.389 l -0.303 0.207 l -0.233 -0.055 c -2.048 -0.48 -6.471 -0.469 -8.394 0.022 l -0.128 0.033 l -0.495 -0.327 c -2.494 -1.647 -5.131 -2.849 -7.062 -3.221 c -0.132 -0.025 -0.267 -0.051 -0.298 -0.057 c -0.056 -0.011 -0.06 -0.003 -0.189 0.346 z M 5.461 4.371 c 1.732 0.625 3.521 1.577 5.453 2.9 c 0.242 0.166 0.459 0.302 0.482 0.302 s 0.189 -0.04 0.369 -0.089 c 2.093 -0.565 6.331 -0.576 8.415 -0.022 c 0.223 0.059 0.421 0.111 0.44 0.115 s 0.29 -0.166 0.602 -0.378 c 2.095 -1.424 4.031 -2.415 5.867 -3.004 l 0.304 -0.098 l 0.039 0.124 c 0.602 1.93 0.83 4.38 0.549 5.905 l -0.081 0.441 l 0.064 0.076 c 0.035 0.042 0.219 0.247 0.408 0.457 c 1.873 2.074 2.46 4.122 2.15 7.51 c -0.17 1.866 -0.657 3.534 -1.417 4.855 c -0.13 0.226 -0.511 0.81 -0.529 0.81 c -0.005 0 0.03 -0.116 0.078 -0.257 c 0.462 -1.37 0.588 -3.302 0.304 -4.646 c -0.449 -2.126 -1.96 -3.978 -3.837 -4.702 c -0.911 -0.352 -1.852 -0.494 -3.266 -0.494 c -0.815 0 -1.053 0.01 -2.495 0.108 c -1.594 0.108 -1.788 0.118 -2.554 0.143 c -1.12 0.035 -2.015 0.006 -3.969 -0.132 c -3.367 -0.237 -4.745 -0.134 -6.136 0.461 c -1.685 0.72 -3.094 2.448 -3.578 4.386 c -0.358 1.434 -0.248 3.365 0.282 4.937 c 0.087 0.258 0.075 0.252 -0.137 -0.067 c -1.16 -1.746 -1.724 -3.763 -1.824 -6.519 c -0.101 -2.773 0.536 -4.555 2.331 -6.522 c 0.252 -0.276 0.363 -0.413 0.355 -0.438 c -0.341 -1.123 -0.248 -3.434 0.217 -5.38 c 0.074 -0.311 0.266 -1.007 0.285 -1.039 c 0.013 -0.021 0.339 0.08 0.831 0.258 z M 11.414 15.608 c 0.217 0.012 0.891 0.056 1.499 0.097 c 2.819 0.191 3.479 0.189 6.523 -0.021 c 1.367 -0.094 1.638 -0.106 2.397 -0.106 c 2.436 0.001 3.692 0.522 4.8 1.994 c 1.022 1.357 1.324 3.101 0.9 5.198 c -0.739 3.658 -3.609 5.196 -10.033 5.378 c -9.419 0.266 -12.965 -1.61 -13.178 -6.971 c -0.062 -1.55 0.401 -2.881 1.385 -3.983 c 1.212 -1.357 2.66 -1.759 5.708 -1.586 z M 10.24 18.297 c -1.71 0.314 -2.573 2.923 -1.613 4.877 c 1.205 2.452 3.982 1.391 4.125 -1.576 c 0.091 -1.904 -1.16 -3.549 -2.512 -3.301 z M 21.231 18.31 c -1.988 0.408 -2.662 3.913 -1.073 5.578 c 1.474 1.544 3.563 0.191 3.628 -2.35 c 0.05 -1.968 -1.172 -3.512 -2.555 -3.228 z M 10.627 19.718 c 0.916 0.416 0.955 2.785 0.056 3.355 c -0.493 0.313 -1.1 -0.731 -1.046 -1.796 c 0.048 -0.941 0.563 -1.752 0.99 -1.559 z M 21.732 19.753 c 0.856 0.55 0.872 2.742 0.024 3.304 c -0.601 0.397 -1.26 -0.99 -1.03 -2.169 c 0.163 -0.838 0.637 -1.372 1.006 -1.134 z" stroke-linecap="round" />
</g>
</svg>