<?xml version="1.0" encoding="UTF-8" standalone="no" ?>
<!DOCTYPE svg PUBLIC "-//W3C//DTD SVG 1.1//EN" "http://www.w3.org/Graphics/SVG/1.1/DTD/svg11.dtd">
<svg xmlns="http://www.w3.org/2000/svg" xmlns:xlink="http://www.w3.org/1999/xlink" version="1.1" width="22" height="32" viewBox="0 0 22 32" xml:space="preserve">
<desc>Created with Fabric.js 3.6.3</desc>
<defs>
</defs>
<g transform="matrix(1 0 0 1 11.06 15.5)"  >
<path style="stroke: none; stroke-width: 1; stroke-dasharray: none; stroke-linecap: butt; stroke-dashoffset: 0; stroke-linejoin: miter; stroke-miterlimit: 4; fill: rgb(89,110,121); fill-rule: nonzero; opacity: 1;"  transform=" translate(-15.49, -15.86)" d="M 15.065 0.889 c -0.014 0.013 -0.279 0.038 -0.591 0.055 c -2.591 0.14 -5.042 1.3 -6.79 3.212 c -0.151 0.165 -0.272 0.259 -0.307 0.237 s -0.044 -0.014 -0.024 0.019 c 0.018 0.03 -0.099 0.233 -0.261 0.452 c -0.592 0.799 -1.105 1.718 -1.427 2.561 c -0.088 0.23 -0.191 0.496 -0.228 0.591 c -0.629 1.607 -0.677 4.306 -0.119 6.674 c 0.355 1.504 1.338 3.904 2.298 5.609 c 0.076 0.135 0.225 0.401 0.332 0.591 s 0.206 0.356 0.223 0.369 c 0.039 0.032 0.484 0.798 0.501 0.862 c 0.007 0.027 0.053 0.094 0.101 0.148 s 0.317 0.442 0.596 0.862 c 0.279 0.42 0.593 0.885 0.697 1.034 c 0.277 0.395 0.812 1.138 0.922 1.28 c 0.052 0.068 0.285 0.378 0.518 0.689 c 0.439 0.587 0.815 1.08 0.957 1.253 c 0.045 0.055 0.274 0.344 0.509 0.642 c 0.494 0.628 0.607 0.769 1.107 1.385 c 0.203 0.25 0.539 0.664 0.746 0.919 c 0.682 0.841 0.686 0.839 2.383 -1.313 c 1.969 -2.496 2.426 -3.085 2.516 -3.242 c 0.031 -0.055 0.077 -0.114 0.101 -0.131 s 0.118 -0.135 0.209 -0.263 c 0.091 -0.128 0.187 -0.218 0.214 -0.202 s 0.035 0.007 0.017 -0.023 c -0.034 -0.055 0.099 -0.275 0.308 -0.513 c 0.064 -0.073 0.141 -0.174 0.172 -0.226 s 0.144 -0.222 0.252 -0.378 c 0.108 -0.157 0.219 -0.322 0.246 -0.366 c 0.143 -0.235 0.283 -0.397 0.323 -0.372 c 0.025 0.015 0.032 -0.006 0.016 -0.046 c -0.016 -0.042 0.022 -0.126 0.087 -0.193 c 0.063 -0.065 0.121 -0.144 0.128 -0.175 s 0.131 -0.239 0.276 -0.462 c 1.938 -2.978 3.249 -5.969 3.751 -8.553 c 1.155 -5.946 -2.184 -11.463 -7.683 -12.698 c -0.811 -0.182 -2.977 -0.384 -3.077 -0.287 z M 17.443 2.133 c 1.461 0.265 3.209 1.024 3.93 1.707 c 0.037 0.035 0.145 0.122 0.24 0.193 c 0.939 0.703 2.183 2.439 2.658 3.711 c 0.061 0.162 0.14 0.367 0.177 0.454 c 0.452 1.075 0.65 3.165 0.444 4.691 c -0.166 1.233 -0.582 2.787 -0.995 3.724 c -0.038 0.085 -0.068 0.171 -0.068 0.189 s -0.031 0.104 -0.069 0.19 c -0.718 1.607 -1.12 2.404 -1.769 3.503 c -0.112 0.19 -0.221 0.352 -0.241 0.361 s -0.038 0.035 -0.038 0.058 c 0 0.058 -0.644 1.086 -1.14 1.821 c -0.486 0.72 -0.603 0.885 -1.247 1.772 c -0.42 0.578 -0.552 0.754 -0.758 1.012 c -0.023 0.029 -0.139 0.184 -0.258 0.345 c -0.468 0.635 -2.762 3.494 -2.815 3.509 c -0.022 0.006 -0.187 -0.173 -0.367 -0.397 s -0.34 -0.419 -0.356 -0.433 c -0.033 -0.029 -1.501 -1.891 -1.998 -2.535 c -0.188 -0.244 -0.368 -0.476 -0.4 -0.517 c -0.373 -0.473 -1.135 -1.538 -1.725 -2.412 c -0.21 -0.311 -0.395 -0.577 -0.411 -0.591 c -0.054 -0.046 -0.388 -0.591 -0.362 -0.591 c 0.014 0 -0.018 -0.047 -0.071 -0.104 c -0.336 -0.361 -1.789 -2.984 -2.329 -4.203 c -0.072 -0.162 -0.165 -0.373 -0.207 -0.468 c -0.123 -0.278 -0.578 -1.529 -0.654 -1.797 c -0.038 -0.135 -0.116 -0.412 -0.172 -0.615 c -1.668 -6.051 1.412 -11.465 7.171 -12.605 c 0.822 -0.163 2.86 -0.148 3.83 0.028 z M 14.966 4.942 c -0.068 0.012 -0.289 0.047 -0.492 0.078 c -1.663 0.256 -3.424 1.421 -4.212 2.786 c -0.051 0.088 -0.11 0.16 -0.131 0.16 s -0.039 0.026 -0.039 0.057 s -0.076 0.214 -0.168 0.406 c -0.734 1.524 -0.813 3.362 -0.21 4.878 c 0.137 0.345 0.389 0.875 0.432 0.911 c 0.017 0.014 0.066 0.094 0.11 0.18 c 0.182 0.354 0.927 1.199 1.313 1.488 c 0.095 0.071 0.21 0.163 0.256 0.204 c 1.526 1.371 4.655 1.55 6.71 0.384 c 1.283 -0.728 2.054 -1.646 2.785 -3.314 c 0.242 -0.553 0.384 -1.795 0.302 -2.642 c -0.116 -1.201 -0.474 -2.121 -1.214 -3.116 c -1.225 -1.649 -3.694 -2.765 -5.442 -2.46 z M 16.744 6.173 c 5.011 1.341 5.095 8.376 0.117 9.84 c -5.016 1.476 -8.673 -4.93 -4.891 -8.567 c 0.345 -0.332 0.908 -0.76 1 -0.76 c 0.024 0 0.078 -0.029 0.121 -0.065 c 0.628 -0.525 2.503 -0.755 3.653 -0.448 z" stroke-linecap="round" />
</g>
</svg>